<svg width="41" height="36" fill="none" xmlns="http://www.w3.org/2000/svg"><path fill-rule="evenodd" clip-rule="evenodd" d="M33 18c0 8.284-6.716 15-15 15-8.284 0-15-6.716-15-15C3 9.716 9.716 3 18 3c3.98 0 7.599 1.55 10.284 4.08l2.122-2.122A17.939 17.939 0 0018 0C8.059 0 0 8.059 0 18s8.059 18 18 18 18-8.059 18-18c0-1.793-.262-3.524-.75-5.158l-2.487 2.487c.156.867.237 1.76.237 2.671z" fill="#39AC37"/><path d="M11.125 14.508a1.5 1.5 0 00-2.25 1.984l2.25-1.984zM17.5 24l-1.125.992a1.5 1.5 0 002.173.081L17.5 24zM40.048 4.073a1.5 1.5 0 00-2.096-2.146l2.096 2.146zM8.875 16.493l7.5 8.5 2.25-1.985-7.5-8.5-2.25 1.984zm9.673 8.58l21.5-21-2.096-2.146-21.5 21 2.096 2.146z" fill="#39AC37"/></svg>