<svg width="800" height="241" fill="none" xmlns="http://www.w3.org/2000/svg"><rect width="247.788" height="106.195" rx="3.54" fill="#fff"/><path d="M130.768 55.296l-4.585-33.647h-.342c-16.672.049-30.175 13.562-30.224 30.245v.343l35.151 3.059z" fill="#ED6C47"/><path d="M126.526 21.65h-.342v30.587l15.283 6.117 15.283-6.117v-.343c-.049-16.683-13.552-30.196-30.224-30.245z" fill="#FF8F6B"/><path d="M156.749 52.237v.337c-.048 16.688-13.554 30.203-30.23 30.251h-.672c-16.676-.048-30.182-13.564-30.23-30.251v-.337h61.132z" fill="#D35230"/><path opacity=".1" d="M127.711 36.683V69.32a2.814 2.814 0 01-1.742 2.585 2.704 2.704 0 01-1.054.214h-22.084c-.428-.49-.841-1.01-1.223-1.53a30.013 30.013 0 01-5.99-18.015V51.9a29.925 29.925 0 014.92-16.487c.337-.52.688-1.04 1.07-1.53h23.307a2.819 2.819 0 012.796 2.8z" fill="#000"/><path opacity=".2" d="M126.181 38.212V70.85c0 .363-.073.722-.214 1.056a2.813 2.813 0 01-2.583 1.743H104.22a25.933 25.933 0 01-1.391-1.53c-.428-.489-.841-1.009-1.223-1.529a30.012 30.012 0 01-5.99-18.016V51.9a29.924 29.924 0 014.92-16.486h22.848a2.819 2.819 0 012.797 2.798z" fill="#000"/><path opacity=".2" d="M126.183 38.212v29.579a2.819 2.819 0 01-2.797 2.798h-21.778a30.013 30.013 0 01-5.99-18.016V51.9a29.925 29.925 0 014.92-16.486h22.848a2.819 2.819 0 012.797 2.798z" fill="#000"/><path opacity=".2" d="M124.655 38.212v29.579a2.82 2.82 0 01-2.797 2.798h-20.25a30.013 30.013 0 01-5.99-18.016V51.9a29.925 29.925 0 014.92-16.486h21.32a2.82 2.82 0 012.797 2.798z" fill="#000"/><path d="M93.835 35.413h28.019a2.802 2.802 0 012.802 2.804v28.04a2.803 2.803 0 01-2.802 2.803h-28.02a2.802 2.802 0 01-2.8-2.803v-28.04a2.802 2.802 0 012.8-2.803z" fill="url(#paint0_linear)"/><path d="M108.15 42.89a7.698 7.698 0 015.102 1.497 5.358 5.358 0 011.776 4.333 6.033 6.033 0 01-.876 3.237 5.852 5.852 0 01-2.486 2.2 8.443 8.443 0 01-3.74.785h-3.544v6.592h-3.63V42.891h7.398zm-3.771 9.205h3.123a4.054 4.054 0 002.762-.825 3.057 3.057 0 00.934-2.412c0-2.054-1.193-3.081-3.579-3.081h-3.24v6.318z" fill="#fff"/><rect x="276.105" width="247.788" height="106.195" rx="3.54" fill="#fff"/><rect x="552.213" width="247.788" height="106.195" rx="3.54" fill="#fff"/><path d="M672.834 39.39c6.059 0 10.971-4.924 10.971-10.997 0-6.074-4.912-10.997-10.971-10.997s-10.971 4.923-10.971 10.997c0 6.073 4.912 10.997 10.971 10.997z" fill="#7B83EB"/><path opacity=".1" d="M672.052 30.749h-9.937l.049.217.006.019.052.202c1.5 5.703 7.216 9.206 12.964 7.945v-5.245a3.146 3.146 0 00-3.134-3.138z" fill="#000"/><path opacity=".2" d="M669.702 33.104h-6.778a10.968 10.968 0 009.912 6.285v-3.144a3.148 3.148 0 00-3.134-3.14z" fill="#000"/><path d="M697.515 40.172c4.543 0 8.226-3.692 8.226-8.246 0-4.553-3.683-8.245-8.226-8.245-4.543 0-8.226 3.692-8.226 8.245 0 4.554 3.683 8.246 8.226 8.246zM704.571 42.53h-18.477c-.833 0-1.506.676-1.506 1.51v19.107c-.104 5.7 3.782 10.697 9.325 11.979 6.359 1.337 12.599-2.745 13.933-9.123.165-.794.251-1.604.251-2.414V46.065a3.529 3.529 0 00-3.526-3.534z" fill="#5059C9"/><path d="M691.64 46.065v22.383c.006 10.405-8.404 18.844-18.784 18.85a18.79 18.79 0 01-16.29-9.424 16.94 16.94 0 01-1.175-2.355 19.27 19.27 0 01-.774-2.356 19.388 19.388 0 01-.588-4.712V46.065a3.527 3.527 0 013.517-3.534h30.568a3.527 3.527 0 013.526 3.524v.01z" fill="#7B83EB"/><path opacity=".2" d="M669.702 33.104h-6.778a10.968 10.968 0 009.912 6.285v-3.144a3.148 3.148 0 00-3.134-3.14z" fill="#000"/><path opacity=".1" d="M675.188 42.53v29.854a3.11 3.11 0 01-2.446 3.04c-.22.064-.449.098-.682.095h-16.663a19.272 19.272 0 01-.774-2.356 19.387 19.387 0 01-.588-4.712V46.065a3.527 3.527 0 013.516-3.534h17.637z" fill="#000"/><path opacity=".2" d="M672.837 42.53v32.21c.003.23-.027.46-.095.684a3.106 3.106 0 01-3.032 2.45h-13.138a16.835 16.835 0 01-1.175-2.355 19.266 19.266 0 01-.774-2.356 19.387 19.387 0 01-.588-4.712V46.065a3.527 3.527 0 013.516-3.534h15.286z" fill="#000"/><path opacity=".2" d="M672.834 42.53v27.498a3.146 3.146 0 01-3.127 3.135h-15.09a19.387 19.387 0 01-.588-4.712V46.065a3.527 3.527 0 013.517-3.534h15.288z" fill="#000"/><path opacity=".2" d="M657.555 42.53a3.527 3.527 0 00-3.526 3.525v22.393c.003 1.59.199 3.172.588 4.712h12.74a3.146 3.146 0 003.127-3.135V42.53h-12.929z" fill="#000"/><path d="M636.009 33.104h31.343a3.137 3.137 0 013.133 3.141v31.418a3.137 3.137 0 01-3.133 3.14h-31.343a3.136 3.136 0 01-3.134-3.14V36.245a3.138 3.138 0 013.134-3.14z" fill="#4B53BC"/><path d="M661.037 44.828h-7.03v18.896h-4.612V44.828h-7.069v-4.644h18.711v4.644z" fill="#fff"/><rect y="134.513" width="247.788" height="106.195" rx="3.54" fill="#fff"/><rect x="276.105" y="134.513" width="247.788" height="106.195" rx="3.54" fill="#fff"/><rect x="552.213" y="134.513" width="247.788" height="106.195" rx="3.54" fill="#fff"/><path fill-rule="evenodd" clip-rule="evenodd" d="M155.453 181.899c.394.643.523 1.375.566 2.197l.056 1.096v7.663l.057 1.097c.115 1.792 1.515 3.117 3.428 3.23l1.156.054v-12.044l.057-1.096c.047-.813.175-1.558.576-2.206a4.519 4.519 0 011.7-1.597 4.842 4.842 0 012.319-.582 4.846 4.846 0 012.316.59 4.518 4.518 0 011.694 1.603c.395.643.518 1.388.565 2.192l.057 1.092v7.667l.058 1.097c.119 1.801 1.508 3.126 3.427 3.23l1.156.054v-13.14c0-2.324-.978-4.552-2.718-6.195-1.74-1.643-4.1-2.567-6.562-2.568a9.735 9.735 0 00-3.821.775 9.245 9.245 0 00-3.142 2.193 9.253 9.253 0 00-3.142-2.193 9.727 9.727 0 00-3.82-.776 9.575 9.575 0 00-5.197 1.505c-.904-.952-2.927-1.505-4.088-1.505v21.904l1.161-.054c1.942-.121 3.346-1.41 3.421-3.23l.062-1.097v-7.663l.058-1.096c.048-.827.17-1.554.566-2.201a4.53 4.53 0 011.7-1.598 4.871 4.871 0 014.635.001 4.527 4.527 0 011.699 1.601zm-79.438 15.284l1.162.053H94.58l-.057-1.093c-.157-1.801-1.508-3.116-3.422-3.234l-1.162-.054H79.5l13.92-13.144-.057-1.091c-.09-1.82-1.499-3.134-3.422-3.234l-1.162-.05-17.403-.004.057 1.096c.153 1.783 1.523 3.127 3.421 3.23l1.163.054h10.44l-13.92 13.144.057 1.096c.115 1.806 1.495 3.113 3.422 3.23v.001zm61.581-18.645a10.938 10.938 0 012.516 3.553c.583 1.329.883 2.753.883 4.192 0 1.438-.3 2.862-.883 4.191a10.938 10.938 0 01-2.516 3.553c-2.177 2.053-5.129 3.207-8.207 3.207-3.077 0-6.029-1.154-8.206-3.207-4.531-4.277-4.531-11.212 0-15.489a11.655 11.655 0 013.762-2.373 12.17 12.17 0 014.437-.834 12.215 12.215 0 014.445.832c1.41.551 2.69 1.358 3.769 2.376v-.001zm-3.283 3.102c1.305 1.232 2.038 2.904 2.038 4.647 0 1.742-.733 3.414-2.038 4.647-1.306 1.232-3.077 1.924-4.924 1.924-1.846 0-3.617-.692-4.923-1.924-1.305-1.233-2.038-2.905-2.038-4.647 0-1.743.733-3.415 2.038-4.647 1.306-1.232 3.077-1.924 4.923-1.924 1.847 0 3.618.692 4.924 1.924zm-29.282-6.309c1.523 0 3.031.284 4.437.834a11.675 11.675 0 013.762 2.374c4.532 4.276 4.532 11.212 0 15.488-2.177 2.053-5.129 3.207-8.207 3.207-3.077 0-6.029-1.154-8.206-3.207-4.531-4.277-4.531-11.212 0-15.489a11.656 11.656 0 013.761-2.373 12.18 12.18 0 014.438-.834h.015zm4.916 6.306c1.305 1.233 2.038 2.905 2.038 4.648 0 1.743-.733 3.415-2.038 4.648-1.307 1.231-3.077 1.923-4.924 1.923-1.846 0-3.617-.692-4.923-1.923-1.305-1.233-2.038-2.905-2.038-4.648 0-1.742.733-3.414 2.038-4.647 1.306-1.232 3.077-1.924 4.923-1.924 1.847 0 3.617.692 4.924 1.924v-.001z" fill="#3C79F6"/><path d="M373.746 176.998a5.446 5.446 0 00-3.813-3.85c-3.385-.936-16.926-.936-16.926-.936s-13.541 0-16.926.9c-1.818.503-3.314 2.015-3.813 3.886-.891 3.419-.891 10.508-.891 10.508s0 7.125.891 10.507a5.446 5.446 0 003.813 3.85c3.421.936 16.926.936 16.926.936s13.541 0 16.926-.9a5.446 5.446 0 003.813-3.85c.891-3.418.891-10.507.891-10.507s.035-7.125-.891-10.544z" fill="red"/><path d="M348.695 194.055l11.261-6.549-11.261-6.55v13.099z" fill="#fff"/><path d="M394.198 200.064c-.856-.575-1.461-1.475-1.818-2.734-.356-1.224-.534-2.879-.534-4.894v-2.771c0-2.051.214-3.707.605-4.966.428-1.26 1.07-2.159 1.925-2.735.891-.576 2.031-.864 3.456-.864 1.39 0 2.53.288 3.385.864.856.576 1.461 1.511 1.853 2.735.392 1.223.606 2.879.606 4.966v2.771c0 2.051-.178 3.67-.57 4.93-.392 1.223-.998 2.159-1.853 2.734-.855.576-2.031.864-3.492.864-1.497-.036-2.708-.324-3.563-.9zm4.81-3.022c.25-.612.356-1.656.356-3.059v-5.974c0-1.367-.106-2.374-.356-3.022-.249-.648-.641-.936-1.247-.936-.57 0-.998.324-1.212.936-.249.648-.356 1.655-.356 3.022v5.974c0 1.403.107 2.447.356 3.059.214.611.642.935 1.248.935.57 0 .962-.288 1.211-.935zM459.979 192.471v.972c0 1.224.036 2.159.107 2.771.071.612.214 1.079.463 1.331.214.288.571.432 1.069.432.642 0 1.069-.252 1.319-.756.249-.503.356-1.331.392-2.518l3.67.215c.036.18.036.396.036.684 0 1.763-.463 3.095-1.426 3.958-.962.864-2.316 1.296-4.062 1.296-2.102 0-3.563-.684-4.418-2.015-.856-1.332-1.283-3.383-1.283-6.19v-3.346c0-2.879.427-4.966 1.318-6.298.891-1.331 2.388-1.979 4.49-1.979 1.461 0 2.601.288 3.385.828.784.54 1.319 1.403 1.639 2.519.321 1.151.464 2.735.464 4.75v3.274h-7.163v.072zm.535-8.06c-.214.288-.357.72-.428 1.331-.071.612-.107 1.548-.107 2.807v1.368h3.136v-1.368c0-1.223-.036-2.159-.107-2.807-.071-.647-.249-1.079-.463-1.331-.214-.252-.57-.396-.998-.396-.499-.036-.819.108-1.033.396zM383.793 192.112l-4.846-17.741h4.241l1.71 8.025c.428 1.979.748 3.67.962 5.074h.107c.143-1.008.463-2.663.962-5.038l1.782-8.061h4.24l-4.917 17.741v8.492h-4.205v-8.492h-.036zM417.468 181.46v19.18h-3.35l-.356-2.339h-.107c-.891 1.763-2.281 2.663-4.098 2.663-1.247 0-2.174-.432-2.779-1.259-.606-.828-.891-2.124-.891-3.923V181.46h4.276v14.07c0 .864.107 1.476.285 1.836.178.359.499.539.926.539.357 0 .713-.108 1.069-.36.357-.215.606-.503.749-.863V181.46h4.276zM439.382 181.46v19.18h-3.35l-.356-2.339h-.107c-.891 1.763-2.281 2.663-4.098 2.663-1.247 0-2.174-.432-2.779-1.259-.606-.828-.891-2.124-.891-3.923V181.46h4.276v14.07c0 .864.107 1.476.285 1.836.178.359.499.539.926.539.357 0 .713-.108 1.069-.36.357-.215.606-.503.749-.863V181.46h4.276z" fill="#282828"/><path d="M429.084 177.862h-4.241v22.742h-4.169v-22.742h-4.24v-3.491h12.65v3.491zM453.53 184.519c-.249-1.224-.677-2.087-1.247-2.627-.57-.54-1.39-.828-2.387-.828-.784 0-1.533.216-2.21.684a4.398 4.398 0 00-1.568 1.763h-.035V173.4h-4.134v27.204h3.528l.428-1.799h.107c.32.647.819 1.151 1.496 1.547.677.36 1.39.576 2.209.576 1.461 0 2.495-.684 3.172-2.015.677-1.332 1.033-3.455 1.033-6.298v-3.022c-.035-2.195-.142-3.887-.392-5.074zm-3.919 7.808c0 1.404-.072 2.483-.179 3.275-.107.792-.32 1.368-.57 1.691-.285.324-.641.504-1.069.504-.356 0-.677-.072-.962-.252a2.083 2.083 0 01-.713-.755v-10.868c.143-.504.392-.935.749-1.295.356-.324.748-.504 1.14-.504.428 0 .784.18.998.504.249.36.392.935.499 1.727.107.828.142 1.979.142 3.455v2.518h-.035z" fill="#282828"/><path d="M598.246 171.338v4.063h-2.233s-2.015-.279-2.015 1.675v3.194h4.279l-.496 4.405h-3.783v12.313h-4.93v-12.407h-3.318v-4.342h3.473v-3.691s-.434-2.016 1.364-3.69c1.799-1.675 4.186-1.52 4.186-1.52h3.473zM610.091 180.302v2.202c-1.241-1.644-3.008-2.668-4.962-2.668-3.813 0-6.914 3.35-6.914 8.84 0 5.428 3.101 8.839 6.914 8.839 1.954 0 3.721-1.054 4.993-2.729l-.031 2.14h4.744v-16.624h-4.744zm-.248 10.018c0 1.674-1.427 3.256-3.194 3.256-1.768 0-3.194-1.582-3.194-3.256v-3.195c0-1.675 1.426-3.257 3.194-3.257 1.767 0 3.194 1.582 3.194 3.257v3.195zM653.5 197.05v-2.202c1.241 1.644 3.008 2.667 4.962 2.667 3.813 0 6.914-3.35 6.914-8.839 0-5.428-3.101-8.84-6.914-8.84-1.954 0-3.721 1.055-4.993 2.73l.031-10.98-4.93.558v24.844l4.93.062zm.28-10.018c0-1.675 1.426-3.257 3.193-3.257 1.768 0 3.194 1.582 3.194 3.257v3.194c0 1.675-1.426 3.257-3.194 3.257-1.767 0-3.193-1.582-3.193-3.257v-3.194zM625.533 193.483s-3.783.217-3.783-4.683v-.279c0-4.901 3.783-4.684 3.783-4.684 2.574-.031 3.473.869 3.473.869l1.178-3.567c-2.046-1.52-8.279-1.768-11.069.806-2.419 2.234-2.419 5.831-2.357 6.762-.031.93-.031 4.528 2.357 6.761 2.79 2.574 8.992 2.326 11.069.807l-1.178-3.567c0-.093-.899.806-3.473.775zM646.524 190.413s1.984-10.422-7.504-10.453c-9.488-.062-8.124 9.429-8.124 9.429.217 5.738 2.853 7.413 7.38 7.94 4.527.527 7.938-1.179 7.938-1.179l-1.055-3.349s-3.658 1.116-6.542.868c-2.884-.248-2.667-3.225-2.667-3.225h10.574v-.031zm-10.667-3.35s-.248-3.691 3.07-3.691c3.318 0 3.07 3.691 3.07 3.691h-6.14zM675.144 180.053c-6.201 0-8.279 3.722-8.279 8.716 0 5.304 2.698 8.715 8.279 8.715 4.558 0 8.279-3.07 8.279-8.715 0-4.808-2.387-8.716-8.279-8.716zm3.225 10.174c0 1.674-1.457 3.256-3.256 3.256-1.798 0-3.256-1.582-3.256-3.256v-3.164c0-1.675 1.458-3.257 3.256-3.257 1.799 0 3.256 1.582 3.256 3.257v3.164zM693.408 180.053c-6.202 0-8.279 3.722-8.279 8.716 0 5.304 2.698 8.715 8.279 8.715 4.558 0 8.279-3.07 8.279-8.715-.031-4.808-2.388-8.716-8.279-8.716zm3.225 10.174c0 1.674-1.458 3.256-3.256 3.256-1.799 0-3.256-1.582-3.256-3.256v-3.164c0-1.675 1.457-3.257 3.256-3.257 1.798 0 3.256 1.582 3.256 3.257v3.164zM718.988 196.988l-5.396-8.343 5.179-8.374h-5.303l-5.023 7.474v-16.252l-4.992.527v24.968h4.992v-8.498l5.427 8.498h5.116z" fill="#1977F3"/><path d="M765.222 175.331h-37.054a1.21 1.21 0 00-1.209 1.209v19.664c0 .683.558 1.21 1.209 1.21h37.085a1.21 1.21 0 001.209-1.21V176.54c0-.651-.558-1.209-1.24-1.209zm-26.139 14.267v1.458h-5.954v-9.367h1.675v7.878l4.279.031zm3.473 1.458h-1.675v-9.367h1.675v9.367zm6.821 0h-1.922l-3.256-9.367h1.829l2.357 7.413h.124l2.326-7.413h1.798l-3.256 9.367zm10.915-7.909h-4.372v2.481h4.155v1.365h-4.155v2.605h4.372v1.458h-6.078v-9.367h6.047v1.458h.031z" fill="#EF4341"/><path d="M325.477 36.273h-12.922a2.295 2.295 0 00-2.276 2.283v29.082a2.295 2.295 0 002.276 2.284h19.748a2.294 2.294 0 002.275-2.284V45.45l-9.101-9.177z" fill="#FFB800"/><path d="M326.162 44.803l8.415 8.531V45.45l-8.415-.647z" fill="url(#paint1_linear)"/><path d="M325.477 43.166c0 1.25 1.03 2.284 2.318 2.284h6.783l-9.101-9.177v6.893z" fill="#FFDB75"/><path d="M312.554 36.273c-1.331 0-2.361 1.163-2.276 2.499a2.295 2.295 0 012.276-2.284h12.922v-.215h-12.922z" fill="#fff" fill-opacity=".2"/><path d="M332.302 69.706h-19.748a2.295 2.295 0 01-2.276-2.283c-.085 1.292.945 2.499 2.276 2.499h19.748c1.331 0 2.361-1.164 2.275-2.5 0 1.25-1.03 2.284-2.275 2.284zM327.751 45.45a2.294 2.294 0 01-2.275-2.284c-.086 1.336.944 2.5 2.275 2.5h6.826v-.216h-6.826z" fill="#D79400"/><path d="M327.365 51.697h-9.874c-.644 0-1.159.517-1.159 1.163v10.082c0 .646.515 1.163 1.159 1.163h9.831c.644 0 1.16-.517 1.16-1.163V52.86c0-.646-.516-1.163-1.117-1.163zm-.3 8.875h-9.316V55.23h9.316v5.342z" fill="#fff"/><path d="M352.094 54.154h8.586c.043.215.086.43.129.732.042.258.042.56.042.819 0 1.12-.171 2.197-.515 3.188a7.46 7.46 0 01-1.631 2.671c-.773.819-1.717 1.465-2.834 1.939-1.073.474-2.361.69-3.735.69-1.287 0-2.49-.216-3.606-.69-1.116-.474-2.103-1.077-2.919-1.896a9.253 9.253 0 01-1.975-2.93 9.294 9.294 0 01-.73-3.662c0-1.335.258-2.542.73-3.662a9.253 9.253 0 011.975-2.93 8.355 8.355 0 012.919-1.895c1.116-.474 2.319-.69 3.606-.69 1.417 0 2.705.259 3.821.733 1.117.474 2.061 1.163 2.877 2.025l-2.276 2.24c-.558-.603-1.202-1.077-1.889-1.379-.687-.301-1.545-.474-2.533-.474-.815 0-1.545.13-2.275.431a6.16 6.16 0 00-1.889 1.207 5.31 5.31 0 00-1.288 1.895 6.49 6.49 0 00-.472 2.5c0 .904.172 1.766.472 2.498a5.31 5.31 0 001.288 1.896c.558.517 1.159.948 1.889 1.206.73.302 1.503.431 2.318.431.945 0 1.718-.13 2.362-.388.644-.258 1.202-.603 1.631-1.034.343-.301.601-.646.859-1.12.257-.43.429-.948.558-1.508h-5.495v-2.843zM368.752 51.352c.945 0 1.803.173 2.576.474.773.302 1.46.776 2.018 1.336.558.56.987 1.25 1.331 2.025.3.775.472 1.637.472 2.585s-.172 1.81-.472 2.585a5.937 5.937 0 01-1.331 2.025c-.558.56-1.245.99-2.018 1.336-.773.344-1.631.473-2.576.473a7.035 7.035 0 01-2.576-.474 5.908 5.908 0 01-2.017-1.335c-.559-.56-.988-1.25-1.331-2.025a7.091 7.091 0 01-.473-2.585c0-.948.172-1.81.473-2.585.3-.776.772-1.465 1.331-2.025.558-.56 1.245-.991 2.017-1.336a7.035 7.035 0 012.576-.474zm0 9.867c.387 0 .816-.087 1.202-.216.387-.172.73-.388 1.031-.69.3-.3.515-.645.687-1.076.171-.431.257-.905.257-1.465s-.086-1.034-.257-1.465a3.098 3.098 0 00-.687-1.077 3.33 3.33 0 00-1.031-.69c-.386-.172-.772-.215-1.202-.215-.429 0-.815.086-1.202.216-.386.172-.73.387-.987.689a3.084 3.084 0 00-.687 1.077c-.172.43-.258.905-.258 1.465s.086 1.034.258 1.465c.172.43.386.775.687 1.077.3.301.644.517.987.69.387.129.773.215 1.202.215zM382.832 51.352c.945 0 1.803.173 2.576.474.773.302 1.46.776 2.018 1.336.558.56.987 1.25 1.331 2.025.3.775.472 1.637.472 2.585s-.172 1.81-.472 2.585a5.937 5.937 0 01-1.331 2.025c-.558.56-1.245.99-2.018 1.336-.773.344-1.631.473-2.576.473a7.035 7.035 0 01-2.576-.474 5.908 5.908 0 01-2.017-1.335c-.558-.56-.988-1.25-1.331-2.025a7.091 7.091 0 01-.472-2.585c0-.948.171-1.81.472-2.585.3-.776.773-1.465 1.331-2.025.558-.56 1.245-.991 2.017-1.336a7.208 7.208 0 012.576-.474zm0 9.867c.387 0 .816-.087 1.202-.216.387-.172.73-.388 1.031-.69.3-.3.515-.645.687-1.076.171-.431.257-.905.257-1.465s-.086-1.034-.257-1.465a3.098 3.098 0 00-.687-1.077 3.33 3.33 0 00-1.031-.69c-.386-.172-.772-.215-1.202-.215-.429 0-.815.086-1.202.216-.386.172-.73.387-.987.689a3.084 3.084 0 00-.687 1.077c-.172.43-.258.905-.258 1.465s.086 1.034.258 1.465c.172.43.386.775.687 1.077.3.301.644.517.987.69.387.129.773.215 1.202.215zM396.784 69.49c-.859 0-1.589-.128-2.276-.344a6.414 6.414 0 01-1.717-.862 6.466 6.466 0 01-1.245-1.163 4.954 4.954 0 01-.73-1.292l3.048-1.25c.215.647.601 1.12 1.117 1.465a3.088 3.088 0 001.717.517c1.03 0 1.803-.345 2.404-.99.601-.647.902-1.552.902-2.715v-.819h-.129a4.122 4.122 0 01-1.46 1.25c-.601.301-1.331.474-2.147.474-.729 0-1.416-.13-2.103-.431-.687-.302-1.288-.69-1.803-1.25a7.61 7.61 0 01-1.288-1.938c-.344-.776-.472-1.595-.472-2.543 0-.947.171-1.809.472-2.584.343-.776.73-1.422 1.288-1.982.515-.56 1.116-.948 1.803-1.25a5.111 5.111 0 012.103-.43c.816 0 1.546.172 2.147.473.601.302 1.116.733 1.46 1.25h.214v-1.293h3.048v11.159a7.881 7.881 0 01-.472 2.757c-.3.819-.73 1.508-1.288 2.068a5.622 5.622 0 01-1.975 1.293c-.815.258-1.674.43-2.618.43zm.128-8.616c.387 0 .773-.086 1.16-.216.386-.129.729-.344 1.03-.646.3-.301.515-.646.73-1.034.171-.43.257-.861.257-1.422 0-.517-.086-.99-.257-1.421a2.653 2.653 0 00-.73-1.034c-.301-.302-.644-.474-1.03-.647-.387-.129-.773-.215-1.16-.215-.386 0-.772.086-1.159.215a2.2 2.2 0 00-.987.647c-.301.301-.515.646-.73 1.034-.172.43-.258.861-.258 1.422 0 .517.086.99.258 1.421.172.431.429.776.73 1.034.3.302.644.474.987.646.344.173.773.216 1.159.216zM405.844 63.804V46.225h3.22v17.579h-3.22zM423.058 60.874a6.556 6.556 0 01-2.233 2.37c-.944.603-2.103.904-3.434.904a6.97 6.97 0 01-2.533-.474 5.902 5.902 0 01-2.018-1.335 5.938 5.938 0 01-1.331-2.025 7.113 7.113 0 01-.472-2.585c0-.862.172-1.68.472-2.456a5.836 5.836 0 011.288-2.025 6.507 6.507 0 011.975-1.379 5.997 5.997 0 012.49-.517c.945 0 1.803.173 2.576.474.73.302 1.374.776 1.889 1.336.515.56.902 1.25 1.159 1.982.258.775.386 1.594.386 2.499v.301c0 .086-.042.173-.042.259 0 .086-.043.172-.043.258h-9.016c.086.474.215.905.386 1.25.215.344.473.646.773.904.301.259.644.431.988.517.343.087.729.173 1.116.173.73 0 1.331-.172 1.803-.517a4.563 4.563 0 001.159-1.25l2.662 1.336zm-2.919-4.653c0-.216-.086-.431-.215-.733a2.23 2.23 0 00-.558-.732c-.258-.215-.515-.43-.902-.56a3.576 3.576 0 00-1.245-.215c-.687 0-1.288.215-1.803.603-.515.387-.901.947-1.116 1.637h5.839zM441.132 59.108c0 1.55-.558 2.757-1.674 3.705-1.159.904-2.533 1.379-4.165 1.379-1.459 0-2.747-.431-3.82-1.293-1.117-.862-1.889-2.025-2.319-3.49l2.147-.905c.129.517.343.991.601 1.422.257.43.558.776.901 1.077.344.302.73.56 1.16.733.429.172.858.258 1.33.258 1.031 0 1.889-.258 2.533-.819.644-.517.988-1.249.988-2.11 0-.733-.258-1.38-.816-1.896-.515-.517-1.46-.991-2.833-1.465-1.417-.517-2.276-.862-2.619-1.034-1.846-.948-2.791-2.37-2.791-4.18 0-1.292.516-2.412 1.546-3.317 1.03-.905 2.318-1.379 3.821-1.379 1.331 0 2.49.345 3.477 1.035.988.689 1.632 1.507 1.975 2.541l-2.061.905a3.385 3.385 0 00-1.159-1.637c-.558-.43-1.288-.646-2.103-.646-.902 0-1.632.258-2.233.732-.601.474-.901 1.077-.901 1.81 0 .603.257 1.12.729 1.55.516.432 1.675.949 3.392 1.552 1.76.603 3.048 1.335 3.821 2.24.73.862 1.073 1.939 1.073 3.232zM445.727 46.225v17.579h-2.233V46.225h2.233zM451.394 47.604c0 .43-.172.819-.473 1.12-.3.302-.686.474-1.116.474-.429 0-.815-.172-1.116-.474a1.57 1.57 0 01-.472-1.12c0-.43.172-.819.472-1.12a1.557 1.557 0 011.116-.474c.43 0 .816.172 1.116.474.301.301.473.69.473 1.12zm-.473 4.136v12.02h-2.232V51.74h2.232zM458.735 64.191c-1.545 0-2.919-.603-4.035-1.852-1.116-1.25-1.675-2.758-1.675-4.524 0-1.767.559-3.274 1.675-4.524s2.49-1.852 4.035-1.852c.902 0 1.675.172 2.404.56.73.387 1.288.861 1.675 1.508h.086l-.086-1.68v-5.602h2.232v17.579H462.9v-1.68h-.086c-.387.603-.945 1.12-1.675 1.507-.729.345-1.502.56-2.404.56zm.387-2.068c1.116 0 2.017-.387 2.704-1.206.73-.819 1.117-1.853 1.117-3.145 0-1.25-.387-2.284-1.117-3.102-.73-.819-1.631-1.207-2.704-1.207-1.074 0-1.975.431-2.705 1.207-.73.818-1.116 1.852-1.116 3.102 0 1.292.386 2.326 1.116 3.102.73.819 1.631 1.25 2.705 1.25zM473.073 64.191c-1.76 0-3.22-.603-4.336-1.81-1.159-1.206-1.717-2.757-1.717-4.61 0-1.852.558-3.36 1.674-4.566 1.116-1.206 2.533-1.81 4.25-1.81 1.76 0 3.177.56 4.25 1.724 1.073 1.163 1.589 2.757 1.589 4.868l-.043.259h-9.402c.043 1.163.429 2.11 1.159 2.843.73.733 1.631 1.078 2.705 1.078 1.416 0 2.575-.733 3.391-2.155l2.018.991c-.558 1.034-1.288 1.81-2.232 2.37a7.09 7.09 0 01-3.306.818zm-3.606-7.884h6.869c-.086-.819-.387-1.508-1.031-2.068-.601-.56-1.416-.819-2.447-.819-.858 0-1.588.259-2.189.776-.601.56-.988 1.25-1.202 2.111zM490.118 60.443c0 1.034-.472 1.939-1.374 2.671-.901.733-2.06 1.077-3.434 1.077-1.202 0-2.275-.301-3.177-.947a5.652 5.652 0 01-1.975-2.5l2.018-.861c.3.732.73 1.292 1.288 1.68.558.388 1.159.603 1.846.603.73 0 1.331-.172 1.803-.473.472-.302.73-.69.73-1.12 0-.776-.601-1.336-1.76-1.68l-2.061-.518c-2.318-.603-3.52-1.723-3.52-3.404 0-1.077.429-1.981 1.331-2.628.901-.646 2.017-.99 3.434-.99 1.073 0 2.018.258 2.876.775.859.517 1.46 1.206 1.804 2.025l-2.018.818c-.215-.517-.601-.904-1.116-1.206-.516-.302-1.074-.43-1.718-.43-.601 0-1.116.128-1.588.43s-.687.646-.687 1.077c0 .69.644 1.163 1.932 1.465l1.803.474c2.361.646 3.563 1.853 3.563 3.662z" fill="#757575"/><defs><linearGradient id="paint0_linear" x1="96.874" y1="33.223" x2="118.838" y2="71.237" gradientUnits="userSpaceOnUse"><stop stop-color="#CA4C28"/><stop offset=".5" stop-color="#C5401E"/><stop offset="1" stop-color="#B62F14"/></linearGradient><linearGradient id="paint1_linear" x1="330.37" y1="45.53" x2="330.37" y2="53.315" gradientUnits="userSpaceOnUse"><stop stop-color="#D79400" stop-opacity=".4"/><stop offset="1" stop-color="#D79400" stop-opacity=".02"/></linearGradient></defs></svg>